HIERARCHY
ROOT Hips
{
	OFFSET 0.00000 0.00000 0.00000
	CHANNELS 6 Xposition Yposition Zposition Zrotation Yrotation Xrotation 
	JOINT LHipJoint
	{
		OFFSET 0 0 0
		CHANNELS 3 Zrotation Yrotation Xrotation
		JOINT LeftHip
		{
			OFFSET 1.29432 -1.88279 0.59910
			CHANNELS 3 Zrotation Yrotation Xrotation
			JOINT LeftKnee
			{
				OFFSET 2.63039 -7.22694 0.00000
				CHANNELS 3 Zrotation Yrotation Xrotation
				JOINT LeftAnkle
				{
					OFFSET 2.70674 -7.43672 0.00000
					CHANNELS 3 Zrotation Yrotation Xrotation
					JOINT LeftToe
					{
						OFFSET 0.15066 -0.41394 2.09027
						CHANNELS 3 Zrotation Yrotation Xrotation
						End Site
						{
							OFFSET 0.00000 -0.00000 1.07518
						}
					}
				}
			}
		}
	}
	JOINT RHipJoint
	{
		OFFSET 0 0 0
		CHANNELS 3 Zrotation Yrotation Xrotation
		JOINT RightHip
		{
			OFFSET -1.37068 -1.88279 0.59910
			CHANNELS 3 Zrotation Yrotation Xrotation
			JOINT RightKnee
			{
				OFFSET -2.57023 -7.06166 0.00000
				CHANNELS 3 Zrotation Yrotation Xrotation
				JOINT RightAnkle
				{
					OFFSET -2.76461 -7.59570 0.00000
					CHANNELS 3 Zrotation Yrotation Xrotation
					JOINT RightToe
					{
						OFFSET -0.24175 -0.64785 2.19719
						CHANNELS 3 Zrotation Yrotation Xrotation
						End Site
						{
							OFFSET -0.00000 -0.00000 1.14803
						}
					}
				}
			}
		}
	}
	JOINT lowerback
	{
		OFFSET 0 0 0
		CHANNELS 3 Zrotation Yrotation Xrotation
		JOINT Chest
		{
			OFFSET -0.03138 2.03983 -0.23106
			CHANNELS 3 Zrotation Yrotation Xrotation
			JOINT Chest2
			{
				OFFSET -0.00325 2.06238 -0.06878
				CHANNELS 3 Zrotation Yrotation Xrotation
				JOINT lowerneck
				{
					OFFSET 0 0 0
					CHANNELS 3 Zrotation Yrotation Xrotation
					JOINT Neck
					{
						OFFSET -0.00002 1.75318 0.18090
						CHANNELS 3 Zrotation Yrotation Xrotation
						JOINT Head
						{
							OFFSET 0.08806 1.75856 -0.25387
							CHANNELS 3 Zrotation Yrotation Xrotation
							End Site
							{
								OFFSET 0.02554 1.78597 -0.10684
							}
						}
					}
				}
				JOINT LeftCollar
				{
					OFFSET 0 0 0
					CHANNELS 3 Zrotation Yrotation Xrotation
					JOINT LeftShoulder
					{
						OFFSET 3.09657 1.33597 -0.04414
CHANNELS 3 Zrotation Xrotation Yrotation
						JOINT LeftElbow
						{
OFFSET 0 -5.342980 -0.000000
CHANNELS 3 Zrotation Xrotation Yrotation
							JOINT LeftWrist
							{
OFFSET 0 -3.672620 -0.000000
CHANNELS 3 Zrotation Xrotation Yrotation
								JOINT lhand
								{
									OFFSET 0 0 0
CHANNELS 3 Zrotation Xrotation Yrotation
									JOINT LFingers
									{
OFFSET 0 -0.599300 -0.000000
CHANNELS 3 Zrotation Xrotation Yrotation
										End Site
										{
OFFSET 0 -0.483170 -0.000000
										}
									}
								}
								JOINT LThumb
								{
OFFSET 0 0.000000 0.000000
CHANNELS 3 Zrotation Xrotation Yrotation
									End Site
									{
OFFSET 0 -0.490550 0.490550
									}
								}
							}
						}
					}
				}
				JOINT RightCollar
				{
					OFFSET 0 0 0
					CHANNELS 3 Zrotation Yrotation Xrotation
					JOINT RightShoulder
					{
						OFFSET -3.16460 1.32273 -0.23382
CHANNELS 3 Zrotation Xrotation Yrotation
						JOINT RightElbow
						{
OFFSET 0 -5.549670 0.033480
CHANNELS 3 Zrotation Xrotation Yrotation
							JOINT RightWrist
							{
OFFSET 0 -3.694010 0.000000
CHANNELS 3 Zrotation Xrotation Yrotation
								JOINT rhand
								{
									OFFSET 0 0 0
CHANNELS 3 Zrotation Xrotation Yrotation
									JOINT RFingers
									{
OFFSET 0 -0.638110 0.000000
CHANNELS 3 Zrotation Xrotation Yrotation
										End Site
										{
OFFSET 0 -0.514460 0.000000
										}
									}
								}
								JOINT RThumb
								{
OFFSET 0 0.000000 0.000000
CHANNELS 3 Zrotation Xrotation Yrotation
									End Site
									{
OFFSET 0 -0.522320 0.522320
									}
								}
							}
						}
					}
				}
			}
		}
	}
}
MOTION
Frames: 5
Frame Time: 0.008333333333333333
9.312200 18.104800 -15.874100 6.912200 -1.927700 3.405700 0.000000 0.000000 0.000000 -29.884500 2.265700 -1.945000 0.935800 6.162000 17.255100 0.398900 -6.786700 -11.499200 0.025900 -1.038700 -2.855300 0.000000 0.000000 0.000000 8.937900 14.559800 -26.922400 -3.849200 -11.957000 35.580000 -0.243500 -7.690100 -15.119300 -0.724400 5.438500 -15.163500 -8.760100 -1.424100 2.392800 -2.636400 -2.056400 1.599400 2.210200 -1.085600 0.527000 -1.737300 -0.686900 -9.010000 2.873400 -1.231900 18.944300 1.114500 -0.464200 7.315900 0.000000 -0.000000 0.000000 10.550000 -19.091700 -21.091200 21.031200 -31.864800 6.066400 0.988300 8.378200 -39.804500 0.000000 0.000000 0.000000 -7.125000 0.000000 0.000000 -43.715400 64.519700 22.656100 0.000000 -0.000000 0.000000 -7.769400 -1.434100 17.271700 -23.436100 -34.562200 -7.384200 -25.594400 -3.492600 -23.879100 0.000000 0.000000 0.000000 7.125000 0.000000 -0.000000 2.256700 3.852300 2.101700
9.305160 18.133629 -15.771270 6.831075 -1.941863 3.553953 0.000000 0.000000 0.000000 -29.742448 2.968165 -1.358104 0.809588 5.738778 16.029181 0.346270 -6.546762 -10.749804 0.049869 -1.430662 -3.934810 0.000000 0.000000 0.000000 8.798781 15.423843 -26.844712 -3.416089 -11.334822 33.423747 -0.162375 -7.939843 -14.185614 -0.401662 4.017480 -11.133253 -8.753144 -1.502375 2.150935 -2.529379 -2.125624 1.693850 2.307583 -1.132113 0.772217 -1.786494 -0.605943 -9.599745 2.903570 -1.113984 19.086352 1.143413 -0.403273 7.465411 0.000000 0.000000 0.000000 10.799408 -20.200374 -21.118018 21.419642 -32.314337 6.272983 6.433282 11.611784 -36.514850 0.000000 0.000000 0.000000 -7.125000 0.000000 0.000000 -33.976349 63.446057 16.226477 0.000000 0.000000 0.000000 -8.158932 -2.261436 17.843930 -23.929887 -35.089174 -7.666544 -25.799558 -3.589899 -23.432328 0.000000 0.000000 0.000000 7.125000 0.000000 0.000000 2.073667 4.288512 1.914393
9.301298 18.153872 -15.669656 6.956372 -1.839057 3.613702 0.000000 0.000000 0.000000 -29.829198 3.594903 -0.601230 0.696695 5.330431 14.854580 0.309663 -6.560846 -10.244692 0.086819 -1.882259 -5.180984 0.000000 0.000000 0.000000 8.496716 15.969634 -26.655868 -3.047345 -10.764705 31.497376 -0.124185 -8.010750 -13.669976 -0.164792 2.455419 -6.774746 -8.860183 -1.526087 1.970868 -2.556164 -2.137039 1.698239 2.333026 -1.142790 0.882480 -1.680923 -0.602944 -9.550956 2.917311 -1.128387 18.962618 1.128243 -0.402250 7.416140 0.000000 0.000000 0.000000 11.220146 -21.038936 -22.051860 21.753521 -32.696803 6.452453 -0.217916 6.280395 -39.518385 0.000000 0.000000 0.000000 -7.125000 0.000000 0.000000 -44.514680 63.852050 22.803913 0.000000 0.000000 0.000000 -8.394307 -2.681271 18.108860 -24.459779 -35.645087 -7.973566 -26.115465 -3.875432 -23.504146 0.000000 0.000000 0.000000 7.125000 0.000000 0.000000 1.888267 4.148529 1.747369
9.301437 18.167739 -15.568849 7.192657 -1.622211 3.613277 0.000000 0.000000 0.000000 -30.040882 4.059840 0.292251 0.595425 4.934130 13.721887 0.274890 -6.574786 -9.741681 0.127855 -2.293686 -6.318630 0.000000 0.000000 0.000000 8.101635 16.316001 -26.428781 -2.689544 -10.165254 29.522198 -0.083680 -8.386829 -13.472635 -0.049680 1.361737 -3.745884 -9.102299 -1.762563 1.949986 -2.466241 -2.461737 1.567372 2.561878 -1.300788 0.809402 -2.057257 -0.471300 -9.100880 2.947324 -0.892293 18.725556 1.220572 -0.317417 7.253289 0.000000 0.000000 0.000000 11.561136 -21.549795 -22.324241 22.173211 -33.170721 6.681013 -0.102532 6.308051 -39.188539 0.000000 0.000000 0.000000 -7.125000 0.000000 0.000000 -43.933420 63.696343 22.168439 0.000000 0.000000 0.000000 -8.966422 -3.059142 18.987405 -24.926229 -36.127357 -8.246803 -26.361333 -4.371309 -23.713178 0.000000 0.000000 0.000000 7.125000 0.000000 0.000000 1.764055 3.875222 1.641405
9.302947 18.178321 -15.469281 7.414026 -1.356359 3.636421 0.000000 0.000000 0.000000 -30.230555 4.412835 1.178397 0.502320 4.537361 12.594604 0.232372 -6.568138 -9.089434 0.153691 -2.526179 -6.962366 0.000000 0.000000 0.000000 7.710167 16.612842 -26.267749 -2.349215 -9.550498 27.539261 -0.046653 -8.956215 -13.587643 -0.020287 0.260875 -0.717035 -9.255651 -1.924295 2.005148 -2.441805 -2.686022 1.552400 2.673827 -1.413088 0.795631 -2.292331 -0.457303 -9.329603 2.978722 -0.836030 18.726365 1.274824 -0.302217 7.294371 0.000000 0.000000 0.000000 12.059204 -22.482693 -22.842629 22.555634 -33.598901 6.890936 5.403636 9.780065 -36.277864 0.000000 0.000000 0.000000 -7.125000 0.000000 0.000000 -34.717367 62.988916 16.236028 0.000000 0.000000 0.000000 -9.400402 -3.727158 19.538819 -25.395637 -36.603999 -8.525367 -26.397374 -4.735480 -23.798908 0.000000 0.000000 0.000000 7.125000 0.000000 0.000000 1.753066 3.776093 1.634492
